<?xml version="1.0" encoding="UTF-8" standalone="no"?>
<!-- Created with Inkscape (http://www.inkscape.org/) -->

<svg
   width="120"
   height="50"
   viewBox="0 0 31.749999 13.229167"
   version="1.1"
   id="svg1"
   inkscape:version="1.3 (0e150ed6c4, 2023-07-21)"
   sodipodi:docname="vehicle.svg"
   xmlns:inkscape="http://www.inkscape.org/namespaces/inkscape"
   xmlns:sodipodi="http://sodipodi.sourceforge.net/DTD/sodipodi-0.dtd"
   xmlns="http://www.w3.org/2000/svg"
   xmlns:svg="http://www.w3.org/2000/svg">
  <sodipodi:namedview
     id="namedview1"
     pagecolor="#505050"
     bordercolor="#eeeeee"
     borderopacity="1"
     inkscape:showpageshadow="0"
     inkscape:pageopacity="0"
     inkscape:pagecheckerboard="0"
     inkscape:deskcolor="#505050"
     inkscape:document-units="mm"
     inkscape:zoom="2.8901105"
     inkscape:cx="-116.25853"
     inkscape:cy="67.298465"
     inkscape:window-width="3440"
     inkscape:window-height="1361"
     inkscape:window-x="1341"
     inkscape:window-y="607"
     inkscape:window-maximized="1"
     inkscape:current-layer="layer1" />
  <defs
     id="defs1">
    <inkscape:path-effect
       effect="fillet_chamfer"
       id="path-effect5"
       is_visible="true"
       lpeversion="1"
       nodesatellites_param="F,0,0,1,0,0,0,1 @ F,0,0,1,0,0,0,1 @ F,0,0,1,0,0,0,1 @ F,0,0,1,0,1.2349023,0,1 @ F,0,0,1,0,0,0,1"
       radius="0"
       unit="px"
       method="auto"
       mode="C"
       chamfer_steps="1"
       flexible="false"
       use_knot_distance="true"
       apply_no_radius="true"
       apply_with_radius="true"
       only_selected="false"
       hide_knots="false" />
  </defs>
  <g
     inkscape:label="Layer 1"
     inkscape:groupmode="layer"
     id="layer1">
    <g
       id="g25"
       inkscape:label="Side"
       transform="translate(-0.06856468,3.4395833)"
       style="fill:#000000;fill-opacity:1">
      <g
         id="g2"
         transform="matrix(-0.98991414,0.01561469,0.0156185,0.98967282,31.392487,-0.19603109)"
         style="display:inline;fill:#000000;fill-opacity:1;stroke-width:1.01019">
        <path
           d="m 18.304149,0.17231118 c -0.46784,-0.003 -0.969172,0.0012 -1.50199,0.01516 -0.532818,0.01401 -1.097246,0.03783 -1.691329,0.07381 -0.01356,8.3e-4 -1.106605,0.641805 -2.196328,1.28243202 -1.089722,0.640627 -2.176092,1.281002 -2.176092,1.281002 l -7.7039147,0.859913 -0.5159839,0.447979 -0.6969396,0.268615 -0.95074023,1.128815 -0.47956155,0.197099 -0.26276152,1.075034 2.4533085,0.501759 -0.5339061,0.752639 2.0095914,0.07323 v -0.44054 c 0,-0.09461 0.00475,-0.18798 0.014163,-0.280059 0.00939,-0.09208 0.023298,-0.182951 0.041623,-0.272048 0.018331,-0.0891 0.04112,-0.176658 0.067931,-0.262322 0.026811,-0.08566 0.057664,-0.169386 0.092501,-0.251166 0.034838,-0.08178 0.073798,-0.161419 0.1162052,-0.238864 0.042406,-0.07744 0.088363,-0.15276 0.1378845,-0.22542 0.049522,-0.07266 0.1025178,-0.142835 0.1586978,-0.210258 0.05618,-0.06742 0.115393,-0.131931 0.1777759,-0.193666 0.062383,-0.06174 0.1278571,-0.12062 0.1959871,-0.176217 0.068131,-0.0556 0.1390423,-0.108043 0.2124641,-0.15705 0.073422,-0.04901 0.1495268,-0.09449 0.2277843,-0.136453 0.078258,-0.04197 0.1587321,-0.08052 0.2413701,-0.114999 0.082638,-0.03448 0.1672378,-0.06501 0.2538005,-0.09154 0.086563,-0.02653 0.1750428,-0.0488 0.2650741,-0.06694 0.090032,-0.01814 0.1815691,-0.03218 0.2746133,-0.04148 0.093045,-0.0093 0.1876836,-0.01402 0.2832852,-0.01402 0.095602,0 0.189952,0.0047 0.2829967,0.01402 0.093045,0.0093 0.1845819,0.02334 0.2746132,0.04148 0.090031,0.01814 0.1785115,0.0404 0.2650742,0.06694 0.086563,0.02653 0.1714516,0.05706 0.2540896,0.09154 0.082638,0.03448 0.1631124,0.07303 0.2413705,0.114999 0.078258,0.04197 0.1540735,0.08745 0.2274952,0.136453 0.073422,0.04901 0.1443341,0.101453 0.2124641,0.15705 0.068131,0.0556 0.1336041,0.114481 0.195987,0.176217 0.062383,0.06174 0.1218852,0.126243 0.1780652,0.193666 0.05618,0.06742 0.1088874,0.137599 0.1584086,0.210258 0.049522,0.07266 0.095767,0.147975 0.1381736,0.22542 0.042407,0.07745 0.081079,0.157084 0.115916,0.238864 0.034838,0.08178 0.06569,0.165502 0.092501,0.251166 0.026811,0.08566 0.0496,0.173225 0.067931,0.262322 0.018331,0.0891 0.032231,0.17997 0.041623,0.272048 0.00939,0.09208 0.014164,0.185449 0.014164,0.280059 v 0.642217 l 0.081517,0.0029 12.2431477,-0.1714503 0.09973,-0.01001 0.01415,-0.7502527 c 0.0018,-0.094593 0.0048,-0.188266 0.01416,-0.280344 0.0094,-0.09208 0.0233,-0.182665 0.04162,-0.271763 0.01833,-0.0891 0.04112,-0.176658 0.06793,-0.262321 0.02681,-0.08566 0.05767,-0.169386 0.0925,-0.251166 0.03484,-0.08178 0.0738,-0.161419 0.116204,-0.238865 0.04241,-0.07745 0.08836,-0.15276 0.137885,-0.22542 0.04952,-0.07266 0.102518,-0.142835 0.158698,-0.210258 0.05618,-0.06742 0.115393,-0.132217 0.177776,-0.193952 0.06238,-0.06174 0.127857,-0.120334 0.195987,-0.175931 0.06813,-0.0556 0.139042,-0.108042 0.212464,-0.15705 0.07342,-0.04901 0.149527,-0.09449 0.227785,-0.136453 0.07826,-0.04197 0.158732,-0.08052 0.24137,-0.114998 0.08264,-0.03448 0.167238,-0.06501 0.253801,-0.09154 0.08656,-0.02653 0.175042,-0.04908 0.265074,-0.06723 0.09003,-0.01814 0.181568,-0.0319 0.274613,-0.04119 0.09305,-0.0093 0.187683,-0.01402 0.283285,-0.01402 0.0956,0 0.189952,0.0047 0.282996,0.01402 0.09305,0.0093 0.184582,0.02306 0.274614,0.04119 0.09003,0.01814 0.178511,0.04069 0.265074,0.06723 0.08656,0.02653 0.171451,0.05707 0.254089,0.09154 0.08264,0.03448 0.163113,0.07303 0.241371,0.114998 0.07826,0.04197 0.154074,0.08745 0.227496,0.136453 0.07342,0.04901 0.144333,0.101454 0.212464,0.15705 0.06813,0.0556 0.133604,0.114195 0.195987,0.175931 0.06238,0.06174 0.121885,0.126529 0.178065,0.193952 0.05618,0.06742 0.108887,0.137599 0.158408,0.210258 0.04952,0.07266 0.09577,0.147975 0.138174,0.22542 0.04241,0.07745 0.08108,0.157084 0.115916,0.238865 0.03484,0.08178 0.06569,0.165502 0.0925,0.251166 0.02681,0.08566 0.0496,0.173225 0.06793,0.262321 0.01833,0.0891 0.03223,0.179684 0.04162,0.271763 0.0094,0.09208 0.01416,0.185735 0.01416,0.280344 v 0.328403 l 4.073816,-1.107931 c 0,0 -0.01575,-0.311335 -0.04856,-0.630489 -0.01641,-0.159577 -0.03712,-0.320987 -0.06215,-0.446549 -0.01252,-0.06278 -0.02603,-0.116712 -0.04076,-0.156764 -0.01473,-0.04005 -0.03072,-0.06625 -0.0477,-0.07409 -0.0679,-0.03135 -0.212651,-0.0696 -0.34052,-0.09984 -0.12787,-0.03024 -0.23877,-0.05264 -0.23877,-0.05264 l 0.009,-0.564407 -0.524945,-1.6752 H 29.694841 L 22.715039,0.46841218 c 0,0 -0.178144,-0.03075 -0.519742,-0.07266 -0.170799,-0.02095 -0.382427,-0.04471 -0.633056,-0.06865 -0.250629,-0.02395 -0.540165,-0.04814 -0.86691,-0.07009 -0.326747,-0.02194 -0.690632,-0.04169 -1.089782,-0.05664 -0.399149,-0.01495 -0.833537,-0.02507 -1.301378,-0.02803 z"
           style="fill:#000000;fill-opacity:1;stroke:#ffffff;stroke-width:0.267278;stroke-linecap:round;stroke-linejoin:round;stroke-opacity:1;paint-order:fill markers stroke"
           id="path3"
           sodipodi:nodetypes="cccsccccccccccsccsssscccccssssscscsscscssssssssccccsccscssscsscssccsccccscsssssssscsccsssssccccccccscc" />
        <path
           style="fill:#000000;fill-opacity:1;stroke:#ffffff;stroke-width:0.267278;stroke-linecap:round;stroke-linejoin:round;stroke-opacity:1;paint-order:fill markers stroke"
           d="m 29.20019,2.7491742 -6.551029,0.11249 0.276357,-2.31924502"
           id="path4" />
        <path
           style="display:inline;fill:#000000;fill-opacity:1;stroke:#ffffff;stroke-width:0.480312;stroke-linecap:round;stroke-linejoin:round;stroke-opacity:1;paint-order:fill markers stroke"
           d="m 24.077078,37.031096 6.923304,-4.497287 8.925915,-0.06866 c 0,0 -0.91463,1.789054 -1.551646,2.996001 -0.31798,0.602473 -1.152291,1.096975 -1.833884,1.12131 -3.367632,0.120233 -12.463689,0.448638 -12.463689,0.448638 z"
           id="path5"
           inkscape:path-effect="#path-effect5"
           inkscape:original-d="m 24.077078,37.031096 6.923304,-4.497287 8.925915,-0.06866 c 0,0 -2.082716,4.07388 -2.151375,4.07388 -0.06866,0 -13.697844,0.492069 -13.697844,0.492069 z"
           transform="matrix(0.55937806,0,0,0.55357067,-1.6819157,-17.314591)" />
      </g>
      <circle
         style="display:none;fill:#000000;fill-opacity:1;stroke:#ffffff;stroke-width:0.264583;stroke-linecap:round;stroke-linejoin:round;paint-order:fill markers stroke"
         id="path1"
         cx="-24.738543"
         cy="7.5406251"
         transform="scale(-1,1)"
         r="2.1166668" />
      <circle
         style="display:none;fill:#000000;fill-opacity:1;stroke:#ffffff;stroke-width:0.264583;stroke-linecap:round;stroke-linejoin:round;paint-order:fill markers stroke"
         id="circle1"
         cx="-7.0114584"
         cy="7.5406251"
         transform="scale(-1,1)"
         r="2.1166668" />
    </g>
  </g>
</svg>
