<?xml version="1.0" encoding="UTF-8" standalone="no"?>
<!-- Created with Inkscape (http://www.inkscape.org/) -->

<svg
   width="120"
   height="32"
   viewBox="0 0 31.749999 8.4666667"
   version="1.1"
   id="svg1"
   inkscape:version="1.3 (0e150ed6c4, 2023-07-21)"
   sodipodi:docname="VehicleTestStarion.svg"
   inkscape:export-filename="VehicleTestStarion.png"
   inkscape:export-xdpi="96"
   inkscape:export-ydpi="96"
   xml:space="preserve"
   xmlns:inkscape="http://www.inkscape.org/namespaces/inkscape"
   xmlns:sodipodi="http://sodipodi.sourceforge.net/DTD/sodipodi-0.dtd"
   xmlns="http://www.w3.org/2000/svg"
   xmlns:svg="http://www.w3.org/2000/svg"><sodipodi:namedview
     id="namedview1"
     pagecolor="#505050"
     bordercolor="#eeeeee"
     borderopacity="1"
     inkscape:showpageshadow="0"
     inkscape:pageopacity="0"
     inkscape:pagecheckerboard="0"
     inkscape:deskcolor="#505050"
     inkscape:document-units="mm"
     inkscape:zoom="2.8284271"
     inkscape:cx="139.47681"
     inkscape:cy="-42.603183"
     inkscape:window-width="3440"
     inkscape:window-height="1361"
     inkscape:window-x="1341"
     inkscape:window-y="607"
     inkscape:window-maximized="1"
     inkscape:current-layer="layer3"
     showgrid="false"><inkscape:page
       x="0"
       y="0"
       width="31.749998"
       height="8.4666672"
       id="page1"
       margin="0"
       bleed="0" /><inkscape:page
       x="41.749996"
       y="0"
       width="13.489096"
       height="8.4666672"
       id="page2"
       margin="0"
       bleed="0"
       inkscape:export-filename="rear_profile.png"
       inkscape:export-xdpi="96"
       inkscape:export-ydpi="96" /><inkscape:page
       x="65.23909"
       y="-23.283518"
       width="13.510368"
       height="31.750185"
       id="page50"
       margin="0 0 0"
       bleed="0"
       inkscape:export-filename="top_profile.png"
       inkscape:export-xdpi="96"
       inkscape:export-ydpi="96" /></sodipodi:namedview><defs
     id="defs1"><inkscape:path-effect
       effect="fillet_chamfer"
       id="path-effect41"
       is_visible="true"
       lpeversion="1"
       nodesatellites_param="F,0,0,1,0,0,0,1 @ F,0,0,1,0,0,0,1 @ F,0,1,1,0,0,0,1 @ F,0,0,1,0,0.79313369,0,1"
       radius="0"
       unit="px"
       method="auto"
       mode="F"
       chamfer_steps="1"
       flexible="false"
       use_knot_distance="true"
       apply_no_radius="true"
       apply_with_radius="true"
       only_selected="false"
       hide_knots="false" /><inkscape:path-effect
       effect="fillet_chamfer"
       id="path-effect35"
       is_visible="true"
       lpeversion="1"
       nodesatellites_param="F,0,0,1,0,0,0,1 @ F,0,0,1,0,0,0,1 @ F,0,1,1,0,0,0,1 @ F,0,0,1,0,0.79313369,0,1"
       radius="0"
       unit="px"
       method="auto"
       mode="F"
       chamfer_steps="1"
       flexible="false"
       use_knot_distance="true"
       apply_no_radius="true"
       apply_with_radius="true"
       only_selected="false"
       hide_knots="false" /><inkscape:path-effect
       effect="fillet_chamfer"
       id="path-effect5"
       is_visible="true"
       lpeversion="1"
       nodesatellites_param="F,0,0,1,0,0,0,1 @ F,0,0,1,0,0,0,1 @ F,0,0,1,0,0,0,1 @ F,0,0,1,0,1.2349023,0,1 @ F,0,0,1,0,0,0,1"
       radius="0"
       unit="px"
       method="auto"
       mode="C"
       chamfer_steps="1"
       flexible="false"
       use_knot_distance="true"
       apply_no_radius="true"
       apply_with_radius="true"
       only_selected="false"
       hide_knots="false" /></defs><g
     inkscape:label="Layer 1"
     inkscape:groupmode="layer"
     id="layer1"><g
       id="g25"
       inkscape:label="Side"><g
         id="g1"
         transform="matrix(-0.98991414,0.01561469,0.0156185,0.98967282,31.392487,-0.19603109)"
         style="display:inline;stroke-width:1.01019"><path
           d="m 18.304149,0.17231118 c -0.46784,-0.003 -0.969172,0.0012 -1.50199,0.01516 -0.532818,0.01401 -1.097246,0.03783 -1.691329,0.07381 -0.01356,8.3e-4 -1.106605,0.641805 -2.196328,1.28243202 -1.089722,0.640627 -2.176092,1.281002 -2.176092,1.281002 l -7.7039147,0.859913 -0.5159839,0.447979 -0.6969396,0.268615 -0.95074023,1.128815 -0.47956155,0.197099 -0.26276152,1.075034 2.4533085,0.501759 -0.5339061,0.752639 2.0095914,0.07323 v -0.44054 c 0,-0.09461 0.00475,-0.18798 0.014163,-0.280059 0.00939,-0.09208 0.023298,-0.182951 0.041623,-0.272048 0.018331,-0.0891 0.04112,-0.176658 0.067931,-0.262322 0.026811,-0.08566 0.057664,-0.169386 0.092501,-0.251166 0.034838,-0.08178 0.073798,-0.161419 0.1162052,-0.238864 0.042406,-0.07744 0.088363,-0.15276 0.1378845,-0.22542 0.049522,-0.07266 0.1025178,-0.142835 0.1586978,-0.210258 0.05618,-0.06742 0.115393,-0.131931 0.1777759,-0.193666 0.062383,-0.06174 0.1278571,-0.12062 0.1959871,-0.176217 0.068131,-0.0556 0.1390423,-0.108043 0.2124641,-0.15705 0.073422,-0.04901 0.1495268,-0.09449 0.2277843,-0.136453 0.078258,-0.04197 0.1587321,-0.08052 0.2413701,-0.114999 0.082638,-0.03448 0.1672378,-0.06501 0.2538005,-0.09154 0.086563,-0.02653 0.1750428,-0.0488 0.2650741,-0.06694 0.090032,-0.01814 0.1815691,-0.03218 0.2746133,-0.04148 0.093045,-0.0093 0.1876836,-0.01402 0.2832852,-0.01402 0.095602,0 0.189952,0.0047 0.2829967,0.01402 0.093045,0.0093 0.1845819,0.02334 0.2746132,0.04148 0.090031,0.01814 0.1785115,0.0404 0.2650742,0.06694 0.086563,0.02653 0.1714516,0.05706 0.2540896,0.09154 0.082638,0.03448 0.1631124,0.07303 0.2413705,0.114999 0.078258,0.04197 0.1540735,0.08745 0.2274952,0.136453 0.073422,0.04901 0.1443341,0.101453 0.2124641,0.15705 0.068131,0.0556 0.1336041,0.114481 0.195987,0.176217 0.062383,0.06174 0.1218852,0.126243 0.1780652,0.193666 0.05618,0.06742 0.1088874,0.137599 0.1584086,0.210258 0.049522,0.07266 0.095767,0.147975 0.1381736,0.22542 0.042407,0.07745 0.081079,0.157084 0.115916,0.238864 0.034838,0.08178 0.06569,0.165502 0.092501,0.251166 0.026811,0.08566 0.0496,0.173225 0.067931,0.262322 0.018331,0.0891 0.032231,0.17997 0.041623,0.272048 0.00939,0.09208 0.014164,0.185449 0.014164,0.280059 v 0.642217 l 0.081517,0.0029 12.2431477,-0.1714503 0.09973,-0.01001 0.01415,-0.7502527 c 0.0018,-0.094593 0.0048,-0.188266 0.01416,-0.280344 0.0094,-0.09208 0.0233,-0.182665 0.04162,-0.271763 0.01833,-0.0891 0.04112,-0.176658 0.06793,-0.262321 0.02681,-0.08566 0.05767,-0.169386 0.0925,-0.251166 0.03484,-0.08178 0.0738,-0.161419 0.116204,-0.238865 0.04241,-0.07745 0.08836,-0.15276 0.137885,-0.22542 0.04952,-0.07266 0.102518,-0.142835 0.158698,-0.210258 0.05618,-0.06742 0.115393,-0.132217 0.177776,-0.193952 0.06238,-0.06174 0.127857,-0.120334 0.195987,-0.175931 0.06813,-0.0556 0.139042,-0.108042 0.212464,-0.15705 0.07342,-0.04901 0.149527,-0.09449 0.227785,-0.136453 0.07826,-0.04197 0.158732,-0.08052 0.24137,-0.114998 0.08264,-0.03448 0.167238,-0.06501 0.253801,-0.09154 0.08656,-0.02653 0.175042,-0.04908 0.265074,-0.06723 0.09003,-0.01814 0.181568,-0.0319 0.274613,-0.04119 0.09305,-0.0093 0.187683,-0.01402 0.283285,-0.01402 0.0956,0 0.189952,0.0047 0.282996,0.01402 0.09305,0.0093 0.184582,0.02306 0.274614,0.04119 0.09003,0.01814 0.178511,0.04069 0.265074,0.06723 0.08656,0.02653 0.171451,0.05707 0.254089,0.09154 0.08264,0.03448 0.163113,0.07303 0.241371,0.114998 0.07826,0.04197 0.154074,0.08745 0.227496,0.136453 0.07342,0.04901 0.144333,0.101454 0.212464,0.15705 0.06813,0.0556 0.133604,0.114195 0.195987,0.175931 0.06238,0.06174 0.121885,0.126529 0.178065,0.193952 0.05618,0.06742 0.108887,0.137599 0.158408,0.210258 0.04952,0.07266 0.09577,0.147975 0.138174,0.22542 0.04241,0.07745 0.08108,0.157084 0.115916,0.238865 0.03484,0.08178 0.06569,0.165502 0.0925,0.251166 0.02681,0.08566 0.0496,0.173225 0.06793,0.262321 0.01833,0.0891 0.03223,0.179684 0.04162,0.271763 0.0094,0.09208 0.01416,0.185735 0.01416,0.280344 v 0.328403 l 4.073816,-1.107931 c 0,0 -0.01575,-0.311335 -0.04856,-0.630489 -0.01641,-0.159577 -0.03712,-0.320987 -0.06215,-0.446549 -0.01252,-0.06278 -0.02603,-0.116712 -0.04076,-0.156764 -0.01473,-0.04005 -0.03072,-0.06625 -0.0477,-0.07409 -0.0679,-0.03135 -0.212651,-0.0696 -0.34052,-0.09984 -0.12787,-0.03024 -0.23877,-0.05264 -0.23877,-0.05264 l 0.009,-0.564407 -0.524945,-1.6752 H 29.694841 L 22.715039,0.46841218 c 0,0 -0.178144,-0.03075 -0.519742,-0.07266 -0.170799,-0.02095 -0.382427,-0.04471 -0.633056,-0.06865 -0.250629,-0.02395 -0.540165,-0.04814 -0.86691,-0.07009 -0.326747,-0.02194 -0.690632,-0.04169 -1.089782,-0.05664 -0.399149,-0.01495 -0.833537,-0.02507 -1.301378,-0.02803 z"
           style="fill:#000000;fill-opacity:1;stroke:#ffffff;stroke-width:0.267278;stroke-linecap:round;stroke-linejoin:round;stroke-opacity:1;paint-order:fill markers stroke"
           id="path3"
           sodipodi:nodetypes="cccsccccccccccsccsssscccccssssscscsscscssssssssccccsccscssscsscssccsccccscsssssssscsccsssssccccccccscc" /><path
           style="fill:none;fill-opacity:0.371223;stroke:#ffffff;stroke-width:0.267278;stroke-linecap:round;stroke-linejoin:round;stroke-opacity:1;paint-order:fill markers stroke"
           d="m 29.20019,2.7491742 -6.551029,0.11249 0.276357,-2.31924502"
           id="path4" /><path
           style="display:inline;fill:none;fill-opacity:0.371223;stroke:#ffffff;stroke-width:0.480312;stroke-linecap:round;stroke-linejoin:round;stroke-opacity:1;paint-order:fill markers stroke"
           d="m 24.077078,37.031096 6.923304,-4.497287 8.925915,-0.06866 c 0,0 -0.91463,1.789054 -1.551646,2.996001 -0.31798,0.602473 -1.152291,1.096975 -1.833884,1.12131 -3.367632,0.120233 -12.463689,0.448638 -12.463689,0.448638 z"
           id="path5"
           inkscape:path-effect="#path-effect5"
           inkscape:original-d="m 24.077078,37.031096 6.923304,-4.497287 8.925915,-0.06866 c 0,0 -2.082716,4.07388 -2.151375,4.07388 -0.06866,0 -13.697844,0.492069 -13.697844,0.492069 z"
           transform="matrix(0.55937806,0,0,0.55357067,-1.6819157,-17.314591)" /></g><circle
         style="display:inline;fill:none;fill-opacity:0.371223;stroke:#ffffff;stroke-width:0.264583;stroke-linecap:round;stroke-linejoin:round;paint-order:fill markers stroke"
         id="path1"
         cx="-24.738543"
         cy="7.5406251"
         transform="scale(-1,1)"
         r="2.1166668" /><circle
         style="display:inline;fill:none;fill-opacity:0.371223;stroke:#ffffff;stroke-width:0.264583;stroke-linecap:round;stroke-linejoin:round;paint-order:fill markers stroke"
         id="circle1"
         cx="-7.0114584"
         cy="7.5406251"
         transform="scale(-1,1)"
         r="2.1166668" /></g><g
       id="g26"
       transform="translate(-0.79470778,-0.06069471)"
       inkscape:label="Front"><rect
         style="display:inline;fill:#000000;fill-opacity:1;stroke:#ffffff;stroke-width:0.264583;stroke-linecap:round;stroke-linejoin:round;paint-order:fill markers stroke"
         id="rect25"
         width="1.9632272"
         height="3.8780813"
         x="53.738914"
         y="5.670197"
         inkscape:label="RightWheel" /><rect
         style="display:inline;fill:#000000;fill-opacity:1;stroke:#ffffff;stroke-width:0.264583;stroke-linecap:round;stroke-linejoin:round;paint-order:fill markers stroke"
         id="rect24"
         width="1.9632272"
         height="3.8780813"
         x="42.848946"
         y="5.670197"
         inkscape:label="LeftWheel" /><path
         d="m 55.459147,3.5026286 -3.585828,0.00517 v 1.5730306 h 3.999756 c -0.0081,-0.061045 -0.01323,-0.1225922 -0.01705,-0.1850016 -0.0038,-0.062409 -0.0062,-0.1254482 -0.0088,-0.1891357 -0.0026,-0.063688 -0.0055,-0.1283899 -0.0098,-0.1932699 -0.0043,-0.06488 -0.01048,-0.1303837 -0.01964,-0.1963704 -0.0092,-0.065987 -0.02124,-0.1324633 -0.03824,-0.1994711 -0.0085,-0.033504 -0.01843,-0.067026 -0.02946,-0.100769 -0.01103,-0.033743 -0.02327,-0.067314 -0.03721,-0.1012858 -0.01394,-0.033972 -0.02928,-0.06813 -0.04651,-0.1023194 -0.01723,-0.034189 -0.03647,-0.06844 -0.05736,-0.1028361 -0.02089,-0.034396 -0.04379,-0.069277 -0.06873,-0.1038696 -0.02494,-0.034593 -0.05177,-0.069091 -0.08113,-0.1038696 z"
         style="display:inline;fill:#000000;fill-opacity:1;stroke:#ffffff;stroke-width:0.264583;stroke-linecap:round;stroke-linejoin:round;paint-order:fill markers stroke"
         id="path20" /><path
         d="m 42.678015,5.0808268 h 3.999756 V 3.5077962 l -3.585828,-0.00517 c -0.02936,0.034778 -0.05619,0.069277 -0.08113,0.1038696 -0.02494,0.034593 -0.04783,0.069473 -0.06873,0.1038696 -0.02089,0.034396 -0.04013,0.068647 -0.05736,0.1028361 -0.01723,0.034189 -0.03257,0.068348 -0.04651,0.1023194 -0.01394,0.033972 -0.02618,0.067543 -0.03721,0.1012858 -0.01103,0.033743 -0.02095,0.067265 -0.02946,0.100769 -0.017,0.067008 -0.02908,0.1334843 -0.03824,0.1994711 -0.0092,0.065987 -0.01529,0.1314904 -0.01964,0.1963704 -0.0043,0.06488 -0.0072,0.1295823 -0.0098,0.1932699 -0.0026,0.063687 -0.005,0.1267263 -0.0088,0.1891357 -0.0038,0.062409 -0.0089,0.1239561 -0.01705,0.1850016 z"
         style="display:inline;fill:#000000;fill-opacity:1;stroke:#ffffff;stroke-width:0.264583;stroke-linecap:round;stroke-linejoin:round;paint-order:fill markers stroke"
         id="path19" /><path
         d="m 43.322344,2.9638767 -0.02015,0.023254 -0.210323,0.5157308 3.585827,0.00517 v 1.5730306 h -3.999756 c -1.34e-4,0.026186 -0.001,0.050978 -0.001,0.077515 -2e-4,0.1001294 7e-4,0.2025457 0.0031,0.3064412 0.0024,0.1038955 0.0064,0.2089924 0.01189,0.3147095 0.0055,0.105717 0.01302,0.2116991 0.02222,0.3172933 0.0093,0.105594 0.02005,0.210666 0.03359,0.3141927 0.01355,0.1035267 0.02965,0.2058932 0.04806,0.3054077 0.01843,0.099515 0.03918,0.1963462 0.06304,0.2899048 0.01193,0.046779 0.02484,0.092534 0.03824,0.1374593 0.0134,0.044926 0.02743,0.088946 0.04237,0.1317749 0.01494,0.042829 0.03048,0.084568 0.04703,0.125057 0.01655,0.040489 0.03396,0.079916 0.05219,0.1178222 l 0.696081,0.1390096 0.791683,0.1586467 0.457854,0.5493204 1.48208,0.00413 2.80913,0.00723 2.809131,-0.00723 1.48208,-0.00413 0.457854,-0.5493204 0.791683,-0.1586467 0.696081,-0.1390096 c 0.01823,-0.037906 0.03564,-0.077333 0.05219,-0.1178222 0.01654,-0.040489 0.03209,-0.082228 0.04703,-0.125057 0.01494,-0.042829 0.02898,-0.086849 0.04237,-0.1317749 0.0134,-0.044926 0.02631,-0.09068 0.03824,-0.1374593 0.02386,-0.093558 0.04463,-0.1903893 0.06305,-0.2899048 0.01841,-0.099515 0.03451,-0.201881 0.04806,-0.3054077 0.01354,-0.1035267 0.02429,-0.2085987 0.03359,-0.3141927 0.0092,-0.1055942 0.01672,-0.2115763 0.02222,-0.3172933 0.0055,-0.1057171 0.0095,-0.210814 0.01189,-0.3147095 0.0024,-0.1038955 0.0033,-0.2063118 0.0031,-0.3064412 0,-0.026537 -8.31e-4,-0.051329 -0.001,-0.077515 H 51.873244 V 3.5080295 l 3.585827,-0.00517 -0.210323,-0.5157308 -0.02015,-0.023254 h -5.953125 z"
         style="display:inline;stroke:#ffffff;stroke-width:0.264583;stroke-linecap:round;stroke-linejoin:round;paint-order:fill markers stroke"
         id="path27" /><path
         d="m 48.970654,0.19326986 c -0.195657,0.001023 -0.477894,0.005001 -0.824239,0.01757 -0.173172,0.006285 -0.362411,0.014694 -0.564823,0.0258382 -0.202413,0.0111442 -0.417857,0.0250555 -0.643889,0.0423747 -0.226031,0.0173192 -0.462388,0.0382358 -0.706416,0.0630452 -0.244029,0.0248095 -0.495488,0.0537181 -0.751892,0.0873332 L 43.957524,2.2210531 c 1.068992,-0.0158 4.944033,-0.073041 5.318021,-0.078031 0.373988,0.00499 4.249029,0.062232 5.318022,0.078031 L 53.071696,0.42943115 c -0.256405,-0.0336151 -0.507864,-0.0625237 -0.751892,-0.0873332 -0.244029,-0.0248095 -0.480386,-0.0457261 -0.706417,-0.0630452 -0.226031,-0.0173192 -0.441476,-0.0312304 -0.643888,-0.0423747 -0.202413,-0.0111442 -0.391651,-0.0195536 -0.564824,-0.0258382 -0.346345,-0.0125693 -0.628581,-0.0165468 -0.824239,-0.01757 -0.195657,-0.001023 -0.304891,0.001034 -0.304891,0.001034 0,0 -0.109233,-0.002057 -0.304891,-0.001034 z"
         style="display:inline;fill:#000000;fill-opacity:1;stroke:#ffffff;stroke-width:0.264583;stroke-linecap:round;stroke-linejoin:round;paint-order:fill markers stroke"
         id="path17" /><path
         d="m 49.275545,2.1430216 c -0.373988,0.00499 -4.249029,0.062232 -5.318021,0.078031 -0.143246,0.00212 -0.712618,0.010335 -0.712618,0.010335 l 0.05736,0.7322551 h 0.02015 5.953125 5.953125 0.02015 l 0.05736,-0.7322551 c 0,0 -0.569373,-0.00822 -0.712618,-0.010335 -1.068993,-0.0158 -4.944034,-0.073041 -5.318022,-0.078031 z"
         style="display:inline;fill:#000000;fill-opacity:1;stroke:#ffffff;stroke-width:0.264583;stroke-linecap:round;stroke-linejoin:round;paint-order:fill markers stroke"
         id="path16" /></g><g
       inkscape:groupmode="layer"
       id="layer3"
       inkscape:label="Top"><g
         id="g50"
         transform="translate(-4.7350024,0.04687087)"><path
           d="m 76.728978,-23.198098 -0.0378,0.0041 -5.585951,0.615934 -0.998374,5.895163 0.09671,13.4774228 c 0,0 -0.02647,0.484327 -0.05164,1.24704 -0.01252,0.381358 -0.02477,0.832455 -0.03343,1.32705104 -0.0087,0.494596 -0.01364,1.032942 -0.01168,1.589149 0.002,0.55620596 0.01098,1.12986696 0.03054,1.69605596 0.0098,0.283097 0.02169,0.564185 0.03706,0.840097 0.01538,0.275913 0.0341,0.546786 0.05599,0.80906 0.0219,0.262274 0.04713,0.516524 0.07635,0.758709 0.02924,0.242183 0.0622,0.472716 0.09963,0.688354 0.03743,0.21564 0.07933,0.41605 0.125796,0.598691 0.04646,0.182642 0.09779,0.34721 0.154157,0.490401 l 0.032,1.038741 5.97352,0.407634 0.03707,0.002 0.0378,-0.002 5.973518,-0.407634 0.03199,-1.038741 c 0.05636,-0.143187 0.107691,-0.307755 0.154161,-0.490397 0.04646,-0.182641 0.08837,-0.383051 0.125796,-0.598691 0.03743,-0.215638 0.0704,-0.446171 0.09963,-0.688354 0.02923,-0.242185 0.05445,-0.496435 0.07635,-0.758709 0.02188,-0.262274 0.04059,-0.533147 0.05599,-0.80906 0.01538,-0.275912 0.02737,-0.557 0.03706,-0.840097 0.01956,-0.566189 0.02857,-1.13985 0.03054,-1.69605596 0.002,-0.556207 -0.0035,-1.094553 -0.01237,-1.589149 -0.0087,-0.49459604 -0.02092,-0.94569304 -0.03344,-1.32705104 -0.02515,-0.762713 -0.05164,-1.24704 -0.05164,-1.24704 l 0.09671,-13.4774208 -0.998376,-5.895165 -5.585946,-0.615934 z"
           style="fill:#000000;fill-opacity:1;stroke:#ffffff;stroke-width:0.264583;stroke-linecap:round;stroke-linejoin:round;paint-order:fill markers stroke"
           id="path48" /><path
           style="fill:none;fill-opacity:1;stroke:#ffffff;stroke-width:0.264583;stroke-linecap:round;stroke-linejoin:round;paint-order:fill markers stroke"
           d="m 76.766957,-8.6634428 -4.266451,0.280806 -1.594045,-4.1472882 0.119548,-0.642613 0.267573,-0.205204 c 0,0 1.735426,-0.648014 5.47337,-0.648014"
           id="path32" /><path
           style="fill:none;fill-opacity:1;stroke:#ffffff;stroke-width:0.193065;stroke-linecap:round;stroke-linejoin:round;paint-order:fill markers stroke"
           d="m 75.664279,2.9295304 v -3.92511299 l -1.073486,-2.92316391 0.03847,4.83071616 a 2.2043274,2.2043274 69.754572 0 0 0.5165,1.40037674 z"
           id="path33"
           sodipodi:nodetypes="ccccc"
           inkscape:original-d="m 75.664279,2.9295304 v -3.92511299 l -1.073486,-2.92316391 0.04479,5.6238247 z"
           inkscape:path-effect="#path-effect35"
           transform="matrix(1.4071169,0,0,1.3347186,-34.300669,-6.2657938)" /><path
           style="fill:none;fill-opacity:1;stroke:#ffffff;stroke-width:0.264583;stroke-linecap:round;stroke-linejoin:round;paint-order:fill markers stroke"
           d="m 76.766957,-0.26318116 -4.502536,-0.01527 c 0,0 -1.513617,-0.74841804 -1.513617,-0.687322 0,0.0611 0.01612,6.20117096 0.386457,6.87321896 0,0 2.773479,0.687321 5.629699,0.595678"
           id="path34" /><path
           style="fill:none;fill-opacity:1;stroke:#ffffff;stroke-width:0.264583;stroke-linecap:round;stroke-linejoin:round;paint-order:fill markers stroke"
           d="m 71.338541,-20.694895 1.958989,-0.151202 v -1.350028 l -1.901468,0.162003 z"
           id="path35" /><path
           style="fill:none;fill-opacity:1;stroke:#ffffff;stroke-width:0.264583;stroke-linecap:round;stroke-linejoin:round;paint-order:fill markers stroke"
           d="m 76.691326,-8.6634428 4.266449,0.280806 1.594046,-4.1472882 -0.11955,-0.642613 -0.267571,-0.205204 c 0,0 -1.735426,-0.648014 -5.473369,-0.648014"
           id="path37" /><path
           style="fill:none;fill-opacity:1;stroke:#ffffff;stroke-width:0.193065;stroke-linecap:round;stroke-linejoin:round;paint-order:fill markers stroke"
           d="m 75.664279,2.9295304 v -3.92511299 l -1.073486,-2.92316391 0.03847,4.83071616 a 2.2043274,2.2043274 69.754572 0 0 0.5165,1.40037674 z"
           id="path38"
           sodipodi:nodetypes="ccccc"
           transform="matrix(-1.4071169,0,0,1.3347186,187.75895,-6.2657938)"
           inkscape:original-d="m 75.664279,2.9295304 v -3.92511299 l -1.073486,-2.92316391 0.04479,5.6238247 z"
           inkscape:path-effect="#path-effect41" /><path
           style="fill:none;fill-opacity:1;stroke:#ffffff;stroke-width:0.264583;stroke-linecap:round;stroke-linejoin:round;paint-order:fill markers stroke"
           d="m 76.691326,-0.26318116 4.502536,-0.01527 c 0,0 1.513618,-0.74841804 1.513618,-0.687322 0,0.0611 -0.01611,6.20117096 -0.386459,6.87321896 0,0 -2.773479,0.687321 -5.629697,0.595678"
           id="path39" /><path
           style="fill:none;fill-opacity:1;stroke:#ffffff;stroke-width:0.264583;stroke-linecap:round;stroke-linejoin:round;paint-order:fill markers stroke"
           d="m 82.119741,-20.694895 -1.95899,-0.151202 v -1.350028 l 1.901469,0.162003 z"
           id="path40" /><path
           style="fill:#000000;fill-opacity:1;stroke:#ffffff;stroke-width:0.264583;stroke-linecap:round;stroke-linejoin:round;paint-order:fill markers stroke"
           d="M 72.264421,-0.27845516 71.137261,5.9074408"
           id="path49" /><path
           style="fill:#000000;fill-opacity:1;stroke:#ffffff;stroke-width:0.264583;stroke-linecap:round;stroke-linejoin:round;paint-order:fill markers stroke"
           d="M 82.321019,5.9074408 81.19386,-0.27845516"
           id="path50" /></g></g></g></svg>
